<?xml version="1.0" standalone="no"?>
<!DOCTYPE svg PUBLIC "-//W3C//DTD SVG 20010904//EN"
 "http://www.w3.org/TR/2001/REC-SVG-20010904/DTD/svg10.dtd">
<svg version="1.0" xmlns="http://www.w3.org/2000/svg"
 width="320.000000pt" height="320.000000pt" viewBox="0 0 320.000000 320.000000"
 preserveAspectRatio="xMidYMid meet">

<g transform="translate(0.000000,320.000000) scale(0.100000,-0.100000)"
fill="#000000" stroke="none">
<path d="M1490 2990 l0 -129 -37 -7 c-178 -31 -283 -64 -411 -128 -244 -123
-446 -326 -571 -573 -61 -123 -95 -230 -125 -405 l-7 -38 -129 0 -130 0 0
-125 0 -125 130 0 c148 0 130 14 150 -115 23 -144 101 -333 197 -478 62 -94
199 -235 301 -312 151 -113 342 -195 535 -230 l97 -17 0 -129 0 -129 125 0
125 0 0 129 0 129 98 17 c531 95 942 506 1037 1038 l17 97 129 0 129 0 0 125
0 125 -129 0 -128 0 -17 91 c-34 187 -111 373 -213 518 -63 89 -191 220 -284
290 -142 107 -365 206 -524 231 -129 20 -115 2 -115 150 l0 130 -125 0 -125 0
0 -130z m0 -545 l0 -155 125 0 125 0 0 155 0 156 38 -6 c416 -70 750 -389 837
-798 8 -38 15 -73 15 -78 0 -5 -66 -9 -155 -9 l-155 0 0 -125 0 -125 156 0
156 0 -7 -47 c-18 -122 -97 -313 -173 -418 -54 -75 -159 -181 -232 -235 -116
-86 -303 -166 -432 -185 l-48 -7 0 156 0 156 -125 0 -125 0 0 -155 c0 -89 -4
-155 -9 -155 -5 0 -40 7 -78 15 -254 54 -488 211 -634 426 -77 114 -140 273
-164 412 l-6 37 156 0 155 0 0 125 0 125 -155 0 -156 0 6 38 c70 413 388 746
800 837 33 7 66 14 73 14 9 1 12 -36 12 -154z"/>
<path d="M1515 1817 c-166 -79 -205 -286 -78 -413 56 -56 89 -69 178 -69 70 0
86 4 128 28 55 33 102 93 118 151 14 51 6 143 -15 184 -61 119 -216 174 -331
119z"/>
</g>
</svg>
