<?xml version="1.0" standalone="no"?>
<!DOCTYPE svg PUBLIC "-//W3C//DTD SVG 20010904//EN"
 "http://www.w3.org/TR/2001/REC-SVG-20010904/DTD/svg10.dtd">
<svg version="1.0" xmlns="http://www.w3.org/2000/svg"
 width="320.000000pt" height="320.000000pt" viewBox="0 0 320.000000 320.000000"
 preserveAspectRatio="xMidYMid meet">

<g transform="translate(0.000000,320.000000) scale(0.100000,-0.100000)"
fill="#000000" stroke="none">
<path d="M1050 2502 c-19 -10 -48 -36 -65 -56 l-30 -38 -3 -801 c-2 -767 -1
-804 16 -837 11 -19 36 -48 56 -65 33 -26 46 -30 101 -30 55 0 68 4 101 30 79
65 74 3 74 890 0 751 -1 792 -19 825 -46 86 -154 125 -231 82z"/>
<path d="M2030 2502 c-19 -10 -48 -36 -65 -56 l-30 -38 -3 -801 c-2 -767 -1
-804 16 -837 11 -19 36 -48 56 -65 33 -26 46 -30 101 -30 55 0 68 4 101 30 79
65 74 3 74 890 0 751 -1 792 -19 825 -46 86 -154 125 -231 82z"/>
</g>
</svg>
