<?xml version="1.0" standalone="no"?>
<!DOCTYPE svg PUBLIC "-//W3C//DTD SVG 20010904//EN"
 "http://www.w3.org/TR/2001/REC-SVG-20010904/DTD/svg10.dtd">
<svg version="1.0" xmlns="http://www.w3.org/2000/svg"
 width="320.000000pt" height="320.000000pt" viewBox="0 0 320.000000 320.000000"
 preserveAspectRatio="xMidYMid meet">

<g transform="translate(0.000000,320.000000) scale(0.100000,-0.100000)"
fill="#000000" stroke="none">
<path d="M1611 2755 c-189 -34 -365 -136 -535 -308 -119 -121 -142 -175 -114
-268 13 -46 68 -106 114 -125 48 -20 133 -18 169 4 30 19 95 84 135 135 48 61
215 161 289 173 62 10 122 -16 149 -65 27 -47 27 -74 3 -126 -24 -52 -67 -95
-209 -209 -143 -115 -208 -176 -250 -239 -73 -105 -91 -234 -51 -363 18 -57
31 -77 82 -129 169 -169 378 -176 460 -16 15 30 27 71 27 91 0 56 -48 123
-115 161 -30 17 -57 35 -61 40 -9 16 89 110 191 182 125 89 163 124 222 201
63 83 110 187 125 273 11 64 10 80 -10 160 -28 113 -87 233 -152 305 -105 118
-265 160 -469 123z"/>
<path d="M1555 941 c-201 -52 -269 -272 -130 -415 43 -45 115 -76 175 -76 43
0 118 26 155 54 99 76 123 236 51 346 -44 66 -170 112 -251 91z"/>
</g>
</svg>
