<?xml version="1.0" standalone="no"?>
<!DOCTYPE svg PUBLIC "-//W3C//DTD SVG 20010904//EN"
 "http://www.w3.org/TR/2001/REC-SVG-20010904/DTD/svg10.dtd">
<svg version="1.0" xmlns="http://www.w3.org/2000/svg"
 width="320.000000pt" height="320.000000pt" viewBox="0 0 320.000000 320.000000"
 preserveAspectRatio="xMidYMid meet">

<g transform="translate(0.000000,320.000000) scale(0.100000,-0.100000)"
fill="#000000" stroke="none">
<path d="M1423 3190 c-28 -4 -76 -16 -107 -25 l-56 -18 0 -132 0 -133 -32 -6
c-18 -4 -71 -22 -118 -41 -46 -19 -87 -35 -91 -35 -4 0 -44 43 -89 95 -45 52
-86 95 -92 95 -27 0 -145 -69 -204 -119 -107 -91 -106 -87 -35 -213 34 -59 61
-110 61 -114 0 -3 -25 -33 -56 -67 -31 -33 -67 -77 -81 -99 -19 -27 -31 -37
-42 -33 -9 4 -64 24 -122 45 l-107 39 -20 -22 c-37 -41 -80 -122 -105 -197
-45 -137 -52 -119 76 -194 l113 -66 -18 -88 c-10 -48 -18 -104 -18 -124 0 -47
-8 -51 -135 -72 -55 -9 -107 -19 -116 -22 -36 -11 -31 -206 8 -331 l17 -53
132 0 132 0 11 -44 c6 -24 26 -79 44 -123 l34 -80 -99 -83 c-54 -46 -98 -87
-98 -92 0 -26 71 -149 120 -206 89 -107 88 -107 214 -34 60 34 110 62 113 62
2 0 24 -19 49 -42 24 -23 68 -59 97 -81 28 -21 53 -40 54 -41 2 -1 -17 -56
-41 -122 -40 -111 -42 -120 -27 -138 27 -31 142 -94 211 -114 128 -39 112 -46
181 73 34 58 65 108 71 111 8 5 119 -12 227 -34 35 -7 35 -8 48 -82 8 -41 18
-98 24 -127 l10 -51 67 -7 c73 -7 176 5 260 30 l52 16 0 130 c0 95 3 131 13
134 6 2 63 23 125 46 100 37 114 40 125 26 56 -71 152 -177 161 -177 43 1 188
94 258 167 l48 48 -65 114 -64 114 52 61 c29 33 67 80 85 102 l32 42 122 -44
122 -45 23 28 c56 67 149 300 128 321 -4 4 -52 34 -108 68 -87 51 -102 64
-101 85 2 32 34 233 38 237 2 2 59 13 127 26 l123 22 9 40 c13 57 1 200 -23
277 l-21 66 -130 3 -131 3 -28 80 c-15 44 -35 97 -44 117 -9 21 -16 39 -16 42
0 2 43 41 95 86 52 45 95 89 95 97 0 53 -176 293 -215 293 -7 0 -61 -27 -119
-61 l-107 -60 -57 49 c-31 27 -78 65 -103 84 l-46 34 44 123 44 122 -23 19
c-69 56 -202 117 -294 133 -31 6 -33 4 -98 -107 l-66 -113 -52 14 c-29 7 -83
16 -120 19 -36 4 -71 10 -78 14 -6 4 -21 63 -34 131 l-22 124 -45 7 c-55 8
-109 8 -176 -2z m402 -739 c109 -29 249 -100 331 -169 340 -286 422 -741 203
-1129 -57 -100 -197 -244 -296 -302 -357 -211 -801 -159 -1084 128 -110 112
-177 227 -225 387 -24 79 -27 105 -27 234 0 128 3 155 27 233 105 349 375 586
731 641 67 10 262 -3 340 -23z"/>
</g>
</svg>
