<?xml version="1.0" standalone="no"?>
<!DOCTYPE svg PUBLIC "-//W3C//DTD SVG 20010904//EN"
 "http://www.w3.org/TR/2001/REC-SVG-20010904/DTD/svg10.dtd">
<svg version="1.0" xmlns="http://www.w3.org/2000/svg"
 width="320.000000pt" height="320.000000pt" viewBox="0 0 320.000000 320.000000"
 preserveAspectRatio="xMidYMid meet">

<g transform="translate(0.000000,320.000000) scale(0.100000,-0.100000)"
fill="#000000" stroke="none">
<path d="M1464 3052 c-28 -10 -69 -31 -90 -47 -22 -17 -191 -184 -374 -372
l-334 -343 -237 0 c-259 0 -298 -6 -352 -58 -16 -15 -39 -45 -50 -67 -22 -39
-22 -50 -25 -538 -2 -427 -1 -507 13 -552 18 -64 53 -108 109 -138 39 -21 56
-22 292 -25 l250 -3 352 -359 c377 -384 401 -404 508 -416 119 -14 231 55 270
167 18 52 19 106 19 1299 0 1193 -1 1247 -19 1299 -47 135 -191 202 -332 153z
m77 -319 c12 -13 15 -201 17 -1112 2 -769 0 -1107 -8 -1133 -9 -32 -15 -38
-38 -38 -22 0 -63 37 -220 197 -106 109 -261 271 -345 360 l-152 163 -215 0
c-337 0 -320 -23 -320 428 0 358 3 376 62 412 30 18 50 20 254 20 l221 0 48
53 c177 192 587 615 619 639 45 32 58 34 77 11z"/>
<path d="M2573 2800 c-56 -34 -83 -101 -63 -155 6 -15 42 -61 80 -102 367
-393 454 -986 216 -1478 -71 -147 -157 -264 -282 -384 -60 -57 -106 -110 -110
-126 -17 -66 18 -134 84 -162 58 -24 104 -3 200 90 253 247 405 526 474 869
32 159 32 424 0 584 -58 290 -173 526 -376 769 -97 117 -151 140 -223 95z"/>
<path d="M2101 2333 c-84 -41 -96 -173 -21 -226 35 -24 109 -126 145 -201 53
-108 76 -211 76 -341 0 -215 -70 -385 -225 -548 -61 -64 -75 -104 -57 -160 33
-98 145 -120 227 -44 108 101 242 335 286 497 19 72 23 110 23 255 0 145 -3
182 -22 250 -43 158 -94 258 -208 412 -87 117 -145 144 -224 106z"/>
</g>
</svg>
