<?xml version="1.0" standalone="no"?>
<!DOCTYPE svg PUBLIC "-//W3C//DTD SVG 20010904//EN"
 "http://www.w3.org/TR/2001/REC-SVG-20010904/DTD/svg10.dtd">
<svg version="1.0" xmlns="http://www.w3.org/2000/svg"
 width="320.000000pt" height="320.000000pt" viewBox="0 0 320.000000 320.000000"
 preserveAspectRatio="xMidYMid meet">

<g transform="translate(0.000000,320.000000) scale(0.100000,-0.100000)"
fill="#000000" stroke="none">
<path d="M935 2884 c-16 -2 -66 -9 -110 -15 -77 -10 -271 -56 -327 -78 l-28
-11 0 -1290 0 -1290 65 0 65 0 2 577 3 577 30 8 c151 42 244 53 445 53 231 0
285 -8 493 -77 161 -53 270 -76 422 -89 199 -17 454 13 656 77 l79 25 0 739 0
739 -77 -29 c-173 -63 -408 -96 -608 -86 -142 7 -227 21 -350 60 -211 65 -256
78 -335 92 -81 15 -361 27 -425 18z m399 -149 c77 -14 113 -23 339 -94 157
-49 292 -64 502 -58 162 6 269 19 398 52 l27 7 -2 -598 -3 -598 -30 -8 c-151
-42 -244 -53 -445 -53 -234 0 -284 8 -503 79 -245 81 -438 106 -661 87 -117
-11 -298 -41 -340 -57 -14 -6 -16 53 -16 593 l0 600 93 21 c95 23 196 39 282
46 81 6 272 -4 359 -19z"/>
</g>
</svg>
